<?xml version="1.0" encoding="UTF-8" standalone="no"?>
<!-- Created with Inkscape (http://www.inkscape.org/) -->

<svg
   width="240"
   height="260"
   id="svg2"
   sodipodi:version="0.32"
   inkscape:version="1.2 (dc2aedaf03, 2022-05-15)"
   version="1.0"
   sodipodi:docname="SuitSpades.svg"
   inkscape:output_extension="org.inkscape.output.svg.inkscape"
   xmlns:inkscape="http://www.inkscape.org/namespaces/inkscape"
   xmlns:sodipodi="http://sodipodi.sourceforge.net/DTD/sodipodi-0.dtd"
   xmlns="http://www.w3.org/2000/svg"
   xmlns:svg="http://www.w3.org/2000/svg"
   xmlns:rdf="http://www.w3.org/1999/02/22-rdf-syntax-ns#"
   xmlns:cc="http://creativecommons.org/ns#"
   xmlns:dc="http://purl.org/dc/elements/1.1/">
  <defs
     id="defs4" />
  <sodipodi:namedview
     id="base"
     pagecolor="#ffffff"
     bordercolor="#666666"
     borderopacity="1.0"
     inkscape:pageopacity="0.0"
     inkscape:pageshadow="2"
     inkscape:zoom="3.6932732"
     inkscape:cx="112.09569"
     inkscape:cy="122.92619"
     inkscape:document-units="px"
     inkscape:current-layer="layer1"
     inkscape:showpageshadow="false"
     width="240px"
     height="260px"
     inkscape:window-width="1920"
     inkscape:window-height="1129"
     inkscape:window-x="-8"
     inkscape:window-y="227"
     showgrid="false"
     inkscape:pagecheckerboard="0"
     inkscape:deskcolor="#d1d1d1"
     inkscape:window-maximized="1" />
  <metadata
     id="metadata7">
    <rdf:RDF>
      <cc:Work
         rdf:about="">
        <dc:format>image/svg+xml</dc:format>
        <dc:type
           rdf:resource="http://purl.org/dc/dcmitype/StillImage" />
      </cc:Work>
    </rdf:RDF>
  </metadata>
  <g
     inkscape:label="Livello 1"
     inkscape:groupmode="layer"
     id="layer1"
     transform="translate(-300.375,-343.5)">
    <rect
       style="fill:#ffffff;stroke:#bbbbba;stroke-width:5.40094;stroke-linecap:round;stroke-linejoin:round;stroke-opacity:1;fill-opacity:1"
       id="rect511"
       width="163.31369"
       height="163.31369"
       x="346.89929"
       y="390.40723"
       ry="34.6539"
       inkscape:export-filename="rect511.png"
       inkscape:export-xdpi="192.32475"
       inkscape:export-ydpi="192.32475" />
    <path
       style="fill:#000000;fill-opacity:1;fill-rule:nonzero;stroke:none;stroke-width:0.535248;stroke-linecap:round;stroke-linejoin:round;stroke-miterlimit:4;stroke-dasharray:1.60574, 1.60574;stroke-dashoffset:0;stroke-opacity:1"
       d="m 428.55613,405.72067 c -24.24907,43.89638 -53.52473,57.17277 -53.52476,82.40428 0,13.11377 10.6642,24.69572 24.91391,24.69572 11.5394,0 27.35492,-1.51173 27.3549,-15.94824 0,-2.17592 -0.081,-2.65689 -0.89901,-3.13433 -1.22542,-0.71525 -0.49718,-1.22068 -0.49718,2.15494 0,8.36661 -4.20072,29.59787 -9.8852,42.51443 8.60245,-2.40925 16.66985,-2.47144 25.15504,0 -5.6845,-12.91656 -9.88521,-34.14782 -9.88521,-42.51443 0,-3.37562 0.5649,-2.79913 -0.49716,-2.15494 -1.59192,0.96555 -0.97938,0.95841 -0.97938,3.13433 1e-5,14.43651 15.89584,15.94824 27.43526,15.94824 14.24971,0 24.83357,-11.58195 24.83357,-24.69572 2e-5,-25.23151 -31.71256,-40.674 -53.52478,-82.40428 z"
       id="path2401"
       sodipodi:nodetypes="csssssccsssssc" />
  </g>
</svg>
